<svg width="686" height="199" viewBox="0 0 686 199" fill="none" xmlns="http://www.w3.org/2000/svg">
<path fill-rule="evenodd" clip-rule="evenodd" d="M64 55.8L78.52 53.4V72.36H100.84V84.48H78.52V110.04C78.52 115.08 79.32 118.68 80.92 120.84C82.52 123 85.24 124.08 89.08 124.08C91.72 124.08 94.06 123.8 96.1 123.24C98.14 122.68 99.76 122.16 100.96 121.68L103.36 133.2C101.68 133.92 99.48 134.66 96.76 135.42C94.04 136.18 90.84 136.56 87.16 136.56C82.68 136.56 78.94 135.96 75.94 134.76C72.94 133.56 70.56 131.82 68.8 129.54C67.04 127.26 65.8 124.5 65.08 121.26C64.36 118.02 64 114.32 64 110.16V55.8ZM143.64 85.44C142.44 85.04 140.78 84.62 138.66 84.18C136.54 83.74 134.08 83.52 131.28 83.52C129.68 83.52 127.98 83.68 126.18 84C124.38 84.32 123.12 84.6 122.4 84.84V135.12H107.88V75.36C110.68 74.32 114.18 73.34 118.38 72.42C122.58 71.5 127.24 71.04 132.36 71.04C133.32 71.04 134.44 71.1 135.72 71.22C137 71.34 138.28 71.5 139.56 71.7C140.84 71.9 142.08 72.14 143.28 72.42C144.48 72.7 145.44 72.96 146.16 73.2L143.64 85.44ZM171.32 124.92C175.8 124.92 179.2 124.68 181.52 124.2V108.12C180.72 107.88 179.56 107.64 178.04 107.4C176.52 107.16 174.84 107.04 173 107.04C171.4 107.04 169.78 107.16 168.14 107.4C166.5 107.64 165.02 108.08 163.7 108.72C162.38 109.36 161.32 110.26 160.52 111.42C159.72 112.58 159.32 114.04 159.32 115.8C159.32 119.24 160.4 121.62 162.56 122.94C164.72 124.26 167.64 124.92 171.32 124.92ZM170.12 70.8C174.92 70.8 178.96 71.4 182.24 72.6C185.52 73.8 188.14 75.48 190.1 77.64C192.06 79.8 193.46 82.42 194.3 85.5C195.14 88.58 195.56 91.96 195.56 95.64V133.68C193.32 134.16 189.94 134.74 185.42 135.42C180.9 136.1 175.8 136.44 170.12 136.44C166.36 136.44 162.92 136.08 159.8 135.36C156.68 134.64 154.02 133.48 151.82 131.88C149.62 130.28 147.9 128.2 146.66 125.64C145.42 123.08 144.8 119.92 144.8 116.16C144.8 112.56 145.5 109.52 146.9 107.04C148.3 104.56 150.2 102.54 152.6 100.98C155 99.42 157.78 98.3 160.94 97.62C164.1 96.94 167.4 96.6 170.84 96.6C172.44 96.6 174.12 96.7 175.88 96.9C177.64 97.1 179.52 97.44 181.52 97.92V95.52C181.52 93.84 181.32 92.24 180.92 90.72C180.52 89.2 179.82 87.86 178.82 86.7C177.82 85.54 176.5 84.64 174.86 84C173.22 83.36 171.16 83.04 168.68 83.04C165.32 83.04 162.24 83.28 159.44 83.76C156.64 84.24 154.36 84.8 152.6 85.44L150.8 73.68C152.64 73.04 155.32 72.4 158.84 71.76C162.36 71.12 166.12 70.8 170.12 70.8ZM219.96 135.12H205.44V72.36H219.96V135.12ZM221.52 54C221.52 56.72 220.64 58.88 218.88 60.48C217.12 62.08 215.04 62.88 212.64 62.88C210.16 62.88 208.04 62.08 206.28 60.48C204.52 58.88 203.64 56.72 203.64 54C203.64 51.2 204.52 49 206.28 47.4C208.04 45.8 210.16 45 212.64 45C215.04 45 217.12 45.8 218.88 47.4C220.64 49 221.52 51.2 221.52 54ZM230.44 74.4C233.24 73.6 236.88 72.84 241.36 72.12C245.84 71.4 250.8 71.04 256.24 71.04C261.36 71.04 265.64 71.74 269.08 73.14C272.52 74.54 275.26 76.5 277.3 79.02C279.34 81.54 280.78 84.58 281.62 88.14C282.46 91.7 282.88 95.6 282.88 99.84V135.12H268.36V102.12C268.36 98.76 268.14 95.9 267.7 93.54C267.26 91.18 266.54 89.26 265.54 87.78C264.54 86.3 263.18 85.22 261.46 84.54C259.74 83.86 257.64 83.52 255.16 83.52C253.32 83.52 251.4 83.64 249.4 83.88C247.4 84.12 245.92 84.32 244.96 84.48V135.12H230.44V74.4ZM309.36 124.68C313.2 124.68 316 124.22 317.76 123.3C319.52 122.38 320.4 120.8 320.4 118.56C320.4 116.48 319.46 114.76 317.58 113.4C315.7 112.04 312.6 110.56 308.28 108.96C305.64 108 303.22 106.98 301.02 105.9C298.82 104.82 296.92 103.56 295.32 102.12C293.72 100.68 292.46 98.94 291.54 96.9C290.62 94.86 290.16 92.36 290.16 89.4C290.16 83.64 292.28 79.1 296.52 75.78C300.76 72.46 306.52 70.8 313.8 70.8C317.48 70.8 321 71.14 324.36 71.82C327.72 72.5 330.24 73.16 331.92 73.8L329.28 85.56C327.68 84.84 325.64 84.18 323.16 83.58C320.68 82.98 317.8 82.68 314.52 82.68C311.56 82.68 309.16 83.18 307.32 84.18C305.48 85.18 304.56 86.72 304.56 88.8C304.56 89.84 304.74 90.76 305.1 91.56C305.46 92.36 306.08 93.1 306.96 93.78C307.84 94.46 309 95.14 310.44 95.82C311.88 96.5 313.64 97.2 315.72 97.92C319.16 99.2 322.08 100.46 324.48 101.7C326.88 102.94 328.86 104.34 330.42 105.9C331.98 107.46 333.12 109.24 333.84 111.24C334.56 113.24 334.92 115.64 334.92 118.44C334.92 124.44 332.7 128.98 328.26 132.06C323.82 135.14 317.48 136.68 309.24 136.68C303.72 136.68 299.28 136.22 295.92 135.3C292.56 134.38 290.2 133.64 288.84 133.08L291.36 120.96C293.52 121.84 296.1 122.68 299.1 123.48C302.1 124.28 305.52 124.68 309.36 124.68ZM339.76 55.8L354.28 53.4V72.36H376.6V84.48H354.28V110.04C354.28 115.08 355.08 118.68 356.68 120.84C358.28 123 361 124.08 364.84 124.08C367.48 124.08 369.82 123.8 371.86 123.24C373.9 122.68 375.52 122.16 376.72 121.68L379.12 133.2C377.44 133.92 375.24 134.66 372.52 135.42C369.8 136.18 366.6 136.56 362.92 136.56C358.44 136.56 354.7 135.96 351.7 134.76C348.7 133.56 346.32 131.82 344.56 129.54C342.8 127.26 341.56 124.5 340.84 121.26C340.12 118.02 339.76 114.32 339.76 110.16V55.8ZM405.72 124.92C410.2 124.92 413.6 124.68 415.92 124.2V108.12C415.12 107.88 413.96 107.64 412.44 107.4C410.92 107.16 409.24 107.04 407.4 107.04C405.8 107.04 404.18 107.16 402.54 107.4C400.9 107.64 399.42 108.08 398.1 108.72C396.78 109.36 395.72 110.26 394.92 111.42C394.12 112.58 393.72 114.04 393.72 115.8C393.72 119.24 394.8 121.62 396.96 122.94C399.12 124.26 402.04 124.92 405.72 124.92ZM404.52 70.8C409.32 70.8 413.36 71.4 416.64 72.6C419.92 73.8 422.54 75.48 424.5 77.64C426.46 79.8 427.86 82.42 428.7 85.5C429.54 88.58 429.96 91.96 429.96 95.64V133.68C427.72 134.16 424.34 134.74 419.82 135.42C415.3 136.1 410.2 136.44 404.52 136.44C400.76 136.44 397.32 136.08 394.2 135.36C391.08 134.64 388.42 133.48 386.22 131.88C384.02 130.28 382.3 128.2 381.06 125.64C379.82 123.08 379.2 119.92 379.2 116.16C379.2 112.56 379.9 109.52 381.3 107.04C382.7 104.56 384.6 102.54 387 100.98C389.4 99.42 392.18 98.3 395.34 97.62C398.5 96.94 401.8 96.6 405.24 96.6C406.84 96.6 408.52 96.7 410.28 96.9C412.04 97.1 413.92 97.44 415.92 97.92V95.52C415.92 93.84 415.72 92.24 415.32 90.72C414.92 89.2 414.22 87.86 413.22 86.7C412.22 85.54 410.9 84.64 409.26 84C407.62 83.36 405.56 83.04 403.08 83.04C399.72 83.04 396.64 83.28 393.84 83.76C391.04 84.24 388.76 84.8 387 85.44L385.2 73.68C387.04 73.04 389.72 72.4 393.24 71.76C396.76 71.12 400.52 70.8 404.52 70.8ZM438 55.8L452.52 53.4V72.36H474.84V84.48H452.52V110.04C452.52 115.08 453.32 118.68 454.92 120.84C456.52 123 459.24 124.08 463.08 124.08C465.72 124.08 468.06 123.8 470.1 123.24C472.14 122.68 473.76 122.16 474.96 121.68L477.36 133.2C475.68 133.92 473.48 134.66 470.76 135.42C468.04 136.18 464.84 136.56 461.16 136.56C456.68 136.56 452.94 135.96 449.94 134.76C446.94 133.56 444.56 131.82 442.8 129.54C441.04 127.26 439.8 124.5 439.08 121.26C438.36 118.02 438 114.32 438 110.16V55.8ZM496.52 135.12H482V72.36H496.52V135.12ZM498.08 54C498.08 56.72 497.2 58.88 495.44 60.48C493.68 62.08 491.6 62.88 489.2 62.88C486.72 62.88 484.6 62.08 482.84 60.48C481.08 58.88 480.2 56.72 480.2 54C480.2 51.2 481.08 49 482.84 47.4C484.6 45.8 486.72 45 489.2 45C491.6 45 493.68 45.8 495.44 47.4C497.2 49 498.08 51.2 498.08 54ZM562.76 103.68C562.76 108.64 562.04 113.16 560.6 117.24C559.16 121.32 557.12 124.8 554.48 127.68C551.84 130.56 548.66 132.8 544.94 134.4C541.22 136 537.12 136.8 532.64 136.8C528.16 136.8 524.08 136 520.4 134.4C516.72 132.8 513.56 130.56 510.92 127.68C508.28 124.8 506.22 121.32 504.74 117.24C503.26 113.16 502.52 108.64 502.52 103.68C502.52 98.72 503.26 94.22 504.74 90.18C506.22 86.14 508.3 82.68 510.98 79.8C513.66 76.92 516.84 74.7 520.52 73.14C524.2 71.58 528.24 70.8 532.64 70.8C537.04 70.8 541.1 71.58 544.82 73.14C548.54 74.7 551.72 76.92 554.36 79.8C557 82.68 559.06 86.14 560.54 90.18C562.02 94.22 562.76 98.72 562.76 103.68ZM547.88 103.68C547.88 97.44 546.54 92.5 543.86 88.86C541.18 85.22 537.44 83.4 532.64 83.4C527.84 83.4 524.1 85.22 521.42 88.86C518.74 92.5 517.4 97.44 517.4 103.68C517.4 110 518.74 115 521.42 118.68C524.1 122.36 527.84 124.2 532.64 124.2C537.44 124.2 541.18 122.36 543.86 118.68C546.54 115 547.88 110 547.88 103.68ZM568.76 74.4C571.56 73.6 575.2 72.84 579.68 72.12C584.16 71.4 589.12 71.04 594.56 71.04C599.68 71.04 603.96 71.74 607.4 73.14C610.84 74.54 613.58 76.5 615.62 79.02C617.66 81.54 619.1 84.58 619.94 88.14C620.78 91.7 621.2 95.6 621.2 99.84V135.12H606.68V102.12C606.68 98.76 606.46 95.9 606.02 93.54C605.58 91.18 604.86 89.26 603.86 87.78C602.86 86.3 601.5 85.22 599.78 84.54C598.06 83.86 595.96 83.52 593.48 83.52C591.64 83.52 589.72 83.64 587.72 83.88C585.72 84.12 584.24 84.32 583.28 84.48V135.12H568.76V74.4Z" fill="white"/>
</svg>
